<svg id="Capa_1" data-name="Capa 1" xmlns="http://www.w3.org/2000/svg" viewBox="0 0 750 470"><defs><style>.cls-1{fill:#fff;}.cls-2{fill:#14aaf5;}</style></defs><path class="cls-1" d="M422,220.22,421.57,147,386.7,205.77H362.84L328,149.56v70.66H278.65V59.64h44.5l52.31,85.57,50.92-85.57h44.51l.46,160.58Z"/><polygon class="cls-2" points="278.88 220.22 379.19 220.22 471.12 59.64 426.61 59.64 375.69 145.21 328.2 220.22 278.88 149.45 278.88 220.22"/><path class="cls-1" d="M106.16,326.89l-.06-28.62-14,23.57h-5l-14-23v28H62.77v-47.7h9.12l17.85,29.64,17.58-29.64h9.06l.14,47.7Z"/><path class="cls-1" d="M159.92,316.67H137.77l-4.22,10.22H122.24l21.26-47.7h10.9l21.32,47.7H164.14Zm-3.48-8.38L148.88,290l-7.56,18.26Z"/><path class="cls-1" d="M225.12,279.19v47.7h-9.07l-23.77-29v29h-10.9v-47.7h9.13l23.71,29v-29Z"/><path class="cls-1" d="M247,288.19H231.72v-9h41.56v9H258v38.7H247Z"/><path class="cls-1" d="M316.82,318v8.86H279.89v-47.7h36v8.86H290.86v10.36H313V307H290.86v11Z"/><path class="cls-1" d="M370,279.19v47.7H361l-23.78-29v29h-10.9v-47.7h9.13l23.71,29v-29Z"/><path class="cls-1" d="M382,279.19h11v47.7H382Z"/><path class="cls-1" d="M448.44,326.89l-.07-28.62-14,23.57h-5l-14-23v28H405v-47.7h9.13L432,308.83l17.58-29.64h9.06l.14,47.7Z"/><path class="cls-1" d="M470.79,279.19h11v47.7h-11Z"/><path class="cls-1" d="M530.74,318v8.86H493.82v-47.7h36v8.86H504.78v10.36h22.15V307H504.78v11Z"/><path class="cls-1" d="M584,279.19v47.7h-9.06l-23.78-29v29h-10.9v-47.7h9.13l23.71,29v-29Z"/><path class="cls-1" d="M605.82,288.19H590.56v-9h41.56v9H616.86v38.7h-11Z"/><path class="cls-1" d="M647.75,324.5a23.81,23.81,0,0,1-9.33-8.82,25.39,25.39,0,0,1,0-25.28,23.74,23.74,0,0,1,9.33-8.82,29.53,29.53,0,0,1,26.74,0,24.31,24.31,0,0,1,0,42.92,29.53,29.53,0,0,1-26.74,0Zm21-8.14a13.94,13.94,0,0,0,5.35-5.42,17.06,17.06,0,0,0,0-15.8,13.87,13.87,0,0,0-5.35-5.42,16,16,0,0,0-15.26,0,13.94,13.94,0,0,0-5.35,5.42,17.06,17.06,0,0,0,0,15.8,14,14,0,0,0,5.35,5.42,16,16,0,0,0,15.26,0Z"/><path class="cls-2" d="M191.84,396.62v12.61H150.61v-49.6h40.31v12.61H167v5.81h21V390.1H167v6.52Z"/><path class="cls-2" d="M250.72,359.63v49.6H237L218.13,386.7v22.53h-16.3v-49.6h13.75l18.85,22.53V359.63Z"/><path class="cls-2" d="M320.94,400.58H302.09l-3.33,8.65h-17l21.69-49.6h16.44l21.68,49.6H324.27Zm-4.61-12-4.82-12.47-4.81,12.47Z"/><path class="cls-2" d="M358.56,407.07a24.66,24.66,0,0,1-9.88-9.21,27,27,0,0,1,0-26.86,24.66,24.66,0,0,1,9.88-9.21,30.11,30.11,0,0,1,14.17-3.29,31.14,31.14,0,0,1,12.9,2.55,23.87,23.87,0,0,1,9.35,7.37l-10.56,9.42q-4.6-5.8-10.84-5.81a11.07,11.07,0,0,0-8.43,3.37,14.38,14.38,0,0,0,0,18.06,11.07,11.07,0,0,0,8.43,3.37q6.24,0,10.84-5.81L395,400.44a24,24,0,0,1-9.35,7.37,31.14,31.14,0,0,1-12.9,2.55A30.23,30.23,0,0,1,358.56,407.07Z"/><path class="cls-2" d="M413.76,407.07a24.69,24.69,0,0,1-9.89-9.21,27,27,0,0,1,0-26.86,24.69,24.69,0,0,1,9.89-9.21,30.06,30.06,0,0,1,14.17-3.29,31.09,31.09,0,0,1,12.89,2.55,23.9,23.9,0,0,1,9.36,7.37l-10.56,9.42Q435,372,428.78,372a11,11,0,0,0-8.43,3.37q-3.19,3.36-3.19,9t3.19,9a11,11,0,0,0,8.43,3.37q6.23,0,10.84-5.81l10.56,9.42a24,24,0,0,1-9.36,7.37,31.09,31.09,0,0,1-12.89,2.55A30.18,30.18,0,0,1,413.76,407.07Z"/><path class="cls-2" d="M458.54,359.63h16.72v49.6H458.54Z"/><path class="cls-2" d="M498.5,407a25.42,25.42,0,0,1,0-45.2,32.71,32.71,0,0,1,28.76,0,25.41,25.41,0,0,1,0,45.2,32.71,32.71,0,0,1-28.76,0Zm20-11.73a10.82,10.82,0,0,0,4-4.32,15.16,15.16,0,0,0,0-13.11,11,11,0,0,0-4-4.32,11.19,11.19,0,0,0-11.26,0,10.93,10.93,0,0,0-4,4.32,15.16,15.16,0,0,0,0,13.11,10.79,10.79,0,0,0,4,4.32,11.12,11.12,0,0,0,11.26,0Zm-3.72-51.05H530l-14,11.34H505.44Z"/><path class="cls-2" d="M599.39,359.63v49.6H585.65L566.8,386.7v22.53H550.5v-49.6h13.75l18.85,22.53V359.63Z"/></svg>