<?xml version="1.0" encoding="UTF-8"?>
<svg xmlns="http://www.w3.org/2000/svg" id="Capa_1" data-name="Capa 1" viewBox="0 0 242.28 57.11">
  <defs>
    <style>
      .cls-1 {
        fill: #20aae0;
      }
    </style>
  </defs>
  <g>
    <path d="M196.08,17.9a5.64,5.64,0,0,0-9.6-1l3-8.9h-4.8l-8.9,25.6-5.3-18.8h-16.6V37.1h-4.1c-.4,0-.7-.2-.6-.6V20.3c0-.5.4-.8,1.1-.7h2.1V14.8h-3.3V8l-11.8,6.8h-11.4c-5.5.8-9.6,3.4-11.7,8.5V14.9h-8.6v8.4a13.72,13.72,0,0,0-11.9-8.5H65.18c-2.1.3-3.8,1.1-4.4,2.8v3c-1.4-3.7-5.8-5.4-12-5.9H35.58c-2.5-3.5-6.9-5.8-13.3-6.8H5.48V49.1h12V33.4c8.6.6,14.3-2,18-6.6V42h9.7V32.8l13.7,16.4h11l-6.6-7.6a6.72,6.72,0,0,0,2.4.4h27.8c5.8-.7,9.9-3.3,12-8.3v8.4h8.6V33.7c2.6,5.2,6.5,8.2,12.2,8.3h10.5V37.2h-10.7c-4.4-.7-4.5-16.8,0-17.5h13.4c.6,0,1.1.1,1.1.6V39c.4,2,2.1,2.9,4.8,3.1h17V18.8l5.7,20c2.8,4.2,6.9,4.2,9.8,1l-.7,2.2h4.7l1.2-3.3h11l3.6,10.3H207Zm-175,9.6h-3.7V14h3.7C27,14.9,26.78,26.8,21.08,27.5ZM48,26h-2.9V19.7h2.8c4.4-.1,4.9,6.3.1,6.3Zm12.7,12.7-7-8.4c3.3-.7,5.7-2.3,7-4.9Zm20.4-1.5H70.18c-.6,0-1-.2-1-.9V30.8h10.3V26H69.28V20.4a1,1,0,0,1,1-.9h10.8Zm12.7,0h-3.1V19.6h3.1C98.08,20.8,98.28,36,93.78,37.2Zm91.1-3.3,3.8-10.5,3.8,10.5Z"></path>
    <path class="cls-1" d="M225.58,10.6c1.3,1.4,1.7,6.5-2.1,10.3-2.4,2.5-4.9,5.1-7.5,7.5-2.8,2.6-5.8,5.1-8.6,7.6-.4.3-.8.6-.7,1.1.1.7.8.6,1.3.6,1.6.1,4-.2,5.6,0,2.6.2,2.4,1.3,2.2,4.3-.1,2.3-1.7,2.2-3.4,2.1-9.2-.2-19.2,3.5-20.7,3.9-1.6-.3-3.8-5.3-3.4-5.7s3.6-2,7.6-4.8c8-5.6,18.8-16,22.4-19.7.4-.4,1.5-1.5,1.1-1.9s-1.6.1-2.2.3a34.38,34.38,0,0,0-12.4,9.3c-1.9,2.1-4-4-3.6-5a4.89,4.89,0,0,1,1.8-2.2c4.9-4.1,9.9-7.6,16.2-9.1a7.31,7.31,0,0,1,3.6,0A4.7,4.7,0,0,1,225.58,10.6Z"></path>
    <path class="cls-1" d="M217.38,44.9c.6-1.6,1.2-3.4,2-5.1,4.6-9.9,8.7-19.9,12.6-30,.3-.8.8-1.6,1.7-1.7s1.3.6,1.9,1.3c1.7,1.8,1.3,3.1.7,5.2-2.3,7.8-7.2,17.4-11.8,27.2-.3.7-1.5,3.9-1.8,4.6-.4,1-.1,2.6-1.9,2.4S217.38,45.8,217.38,44.9Z"></path>
  </g>
</svg>
