<svg width="369" height="86" viewBox="0 0 369 86" fill="none" xmlns="http://www.w3.org/2000/svg">
<rect width="25.2003" height="25.2003" rx="1" fill="#F5AB18"/>
<rect y="29.4004" width="25.2003" height="25.2003" rx="1" fill="#FFD132"/>
<rect y="58.7998" width="25.2003" height="25.2003" rx="1" fill="#FFD132"/>
<rect x="29.3999" y="58.7998" width="25.2003" height="25.2003" rx="1" fill="#FFD132"/>
<rect x="29.3999" y="29.4004" width="25.2003" height="25.2003" rx="1" fill="#F5AB18"/>
<rect x="29.3999" width="25.2003" height="25.2003" rx="1" fill="#F1871A"/>
<rect x="58.8008" y="29.4004" width="25.2003" height="25.2003" rx="1" fill="#F1871A"/>
<rect x="58.8008" y="58.7998" width="25.2003" height="25.2003" rx="1" fill="#F5AB18"/>
<path d="M164.145 32.86C164.145 37.27 162.465 41.26 159.385 44.27C156.305 47.28 151.335 49.1 145.315 49.1H136.215V68H128.235V16.97H146.295C153.925 16.97 158.895 19.77 161.555 23.83C163.375 26.63 164.145 29.57 164.145 32.86ZM156.025 33C156.025 29.15 153.995 24.39 145.595 24.39H136.215V41.75H145.595C149.305 41.75 152.175 40.63 153.715 38.88C155.255 37.13 156.025 35.17 156.025 33ZM190.378 33.07V41.05C189.748 40.91 189.048 40.84 188.208 40.84C182.328 40.84 179.108 44.27 179.108 50.29V68H171.338V33.21H178.968V38.6C180.998 34.89 184.708 32.93 188.488 32.93C189.188 32.93 189.818 33 190.378 33.07ZM227.324 52.88H200.864C201.004 58.06 206.044 62.05 211.084 61.98C215.564 61.98 218.994 60.09 220.324 56.1L226.834 58.13C225.574 62.4 222.074 65.83 217.874 67.44C215.704 68.21 213.534 68.63 211.154 68.63C201.144 68.84 192.744 60.65 192.954 50.57C192.954 47.28 193.724 44.27 195.194 41.54C196.734 38.74 198.764 36.57 201.494 34.96C204.154 33.35 207.164 32.51 210.454 32.51C215.774 32.51 219.904 34.12 222.914 37.48C225.924 40.77 227.464 45.11 227.464 50.5C227.464 51.34 227.394 52.18 227.324 52.88ZM210.524 39.16C208.144 39.16 206.044 39.86 204.364 41.33C202.684 42.73 201.634 44.62 201.284 47H219.554C219.414 44.62 218.504 42.73 216.824 41.26C215.074 39.86 212.974 39.16 210.524 39.16ZM233.011 50.57C233.011 46.09 234.691 41.68 237.561 38.25C240.501 34.82 245.121 32.51 250.371 32.51C252.261 32.51 254.291 33 256.461 33.98C258.701 34.89 260.451 36.29 261.641 38.18V14.94H269.411V68H261.781V62.54C260.941 63.94 259.751 65.13 258.211 66.11C256.601 67.02 255.131 67.65 253.801 68C252.471 68.35 251.211 68.56 250.161 68.56C246.941 68.56 243.931 67.65 241.341 65.97C238.681 64.29 236.651 62.05 235.181 59.32C233.781 56.59 233.011 53.65 233.011 50.57ZM261.711 50.57C261.711 47.49 260.801 44.9 258.841 42.73C256.881 40.63 254.361 39.58 251.281 39.58C248.201 39.58 245.751 40.63 243.791 42.73C241.831 44.9 240.851 47.49 240.851 50.57C240.851 53.65 241.831 56.17 243.791 58.34C245.751 60.44 248.201 61.49 251.281 61.49C254.361 61.49 256.881 60.44 258.841 58.34C260.801 56.17 261.711 53.65 261.711 50.57ZM291.096 64.08L275.626 33.21H284.446L295.296 56.03L305.306 33.21H313.706L289.836 85.15H281.576L291.096 64.08ZM332.559 68.63C322.479 68.77 314.219 60.58 314.429 50.5C314.429 47.28 315.199 44.27 316.809 41.47C318.349 38.74 320.589 36.5 323.389 34.89C326.189 33.28 329.269 32.51 332.629 32.51C336.759 32.51 340.259 33.56 343.199 35.8C346.139 37.97 347.959 40.63 348.729 43.71L341.729 46.02C341.309 44.55 340.469 43.15 339.069 41.75C337.669 40.42 335.359 39.51 332.629 39.51C329.759 39.51 327.309 40.56 325.349 42.52C323.389 44.55 322.409 47.21 322.409 50.43C322.409 53.65 323.389 56.31 325.279 58.41C327.239 60.51 329.759 61.56 332.699 61.56C337.109 61.56 340.189 59.32 341.869 54.91L348.939 57.22C348.169 60.02 346.419 62.61 343.759 64.85C341.099 67.16 337.109 68.63 332.559 68.63Z" fill="black"/>
</svg>
