<svg width="32" height="32" viewBox="0 0 32 32" fill="none" xmlns="http://www.w3.org/2000/svg">
<g clip-path="url(#clip0_341_249)">
<path d="M28.8333 8H3.16667C2.52233 8 2 8.52233 2 9.16667C2 9.811 2.52233 10.3333 3.16667 10.3333H28.8333C29.4777 10.3333 30 9.811 30 9.16667C30 8.52233 29.4777 8 28.8333 8Z" fill="white"/>
<path d="M28.8333 15H3.16667C2.52233 15 2 15.5223 2 16.1667C2 16.811 2.52233 17.3333 3.16667 17.3333H28.8333C29.4777 17.3333 30 16.811 30 16.1667C30 15.5223 29.4777 15 28.8333 15Z" fill="white"/>
<path d="M28.8333 22H3.16667C2.52233 22 2 22.5223 2 23.1667C2 23.811 2.52233 24.3333 3.16667 24.3333H28.8333C29.4777 24.3333 30 23.811 30 23.1667C30 22.5223 29.4777 22 28.8333 22Z" fill="white"/>
</g>
<defs>
<clipPath id="clip0_341_249">
<rect width="32" height="32" fill="white"/>
</clipPath>
</defs>
</svg>
