<svg width="125" height="125" viewBox="0 0 125 125" fill="none" xmlns="http://www.w3.org/2000/svg">
<g clip-path="url(#clip0_400_2)">
<path d="M124.99 93.2794C124.99 93.9633 124.969 95.4486 124.928 96.5944C124.874 99.297 124.654 101.994 124.268 104.669C123.818 107.015 123.056 109.29 122.005 111.435C119.687 116.004 115.972 119.715 111.401 122.028C109.244 123.082 106.955 123.844 104.597 124.292C101.941 124.67 99.2652 124.886 96.5833 124.939C95.4363 124.979 93.951 125 93.2745 125L31.7267 124.99C31.0429 124.99 29.5588 124.969 28.4118 124.928C25.7092 124.874 23.0125 124.654 20.337 124.268C17.9912 123.818 15.7159 123.056 13.5711 122.005C8.99797 119.689 5.28312 115.974 2.96691 111.401C1.91437 109.243 1.15479 106.955 0.708333 104.597C0.330303 101.941 0.114217 99.2652 0.0612745 96.5834C0.02481 95.4808 0.00438299 94.3777 0 93.2745L0.00980392 31.7255C0.00980392 31.0417 0.0306373 29.5564 0.0723039 28.4106C0.126149 25.708 0.346336 23.0113 0.731618 20.3358C1.1823 17.99 1.94348 15.7147 2.9951 13.5699C5.31179 8.99772 9.02658 5.2838 13.5993 2.96816C15.7563 1.91366 18.0445 1.15203 20.4032 0.703451C23.0587 0.325294 25.7348 0.109207 28.4167 0.0563918C29.5637 0.0159506 31.049 -0.00488281 31.7255 -0.00488281L93.2794 0.0098231C93.9645 0.0098231 95.4485 0.0306564 96.5944 0.072323C99.2969 0.126186 101.994 0.346374 104.669 0.731637C107.015 1.18231 109.29 1.9435 111.435 2.99512C116.004 5.31314 119.715 9.02781 122.028 13.5993C123.083 15.7562 123.844 18.0445 124.293 20.4032C124.671 23.0588 124.887 25.7349 124.94 28.4167C124.98 29.5637 125.001 31.049 125.001 31.7255L124.991 93.2733L124.99 93.2794Z" fill="url(#paint0_linear_400_2)"/>
<path d="M95.6127 29.5719C87.9259 21.883 77.7068 17.2497 66.8582 16.5346C56.0095 15.8196 45.2706 19.0715 36.6412 25.6849C28.0118 32.2984 22.0798 41.8226 19.95 52.4841C17.8201 63.1457 19.6375 74.2179 25.0637 83.6393L18.7046 106.86L42.4668 100.628C49.0394 104.207 56.4036 106.082 63.8872 106.083H63.9056C72.7698 106.083 81.4349 103.454 88.8056 98.5301C96.1763 93.6059 101.922 86.607 105.315 78.4181C108.709 70.2292 109.598 61.218 107.871 52.5236C106.144 43.8293 101.878 35.8421 95.6127 29.5719ZM63.9092 98.5143H63.8945C57.2228 98.5153 50.6735 96.7223 44.9325 93.3231L43.5722 92.5155L29.4717 96.2128L33.2352 82.4689L32.3492 81.0596C27.9591 74.0633 26.0185 65.8066 26.8324 57.5872C27.6462 49.3678 31.1684 41.652 36.8453 35.6525C42.5222 29.6531 50.0318 25.7102 58.1937 24.4438C66.3556 23.1773 74.7069 24.6591 81.9349 28.6562C89.1629 32.6533 94.8576 38.939 98.124 46.5253C101.39 54.1115 102.043 62.5682 99.9794 70.5658C97.9159 78.5634 93.2531 85.6486 86.7241 90.7074C80.1951 95.7663 72.17 98.512 63.9105 98.513L63.9092 98.5143ZM84.3382 70.6209C83.2181 70.0608 77.7119 67.3513 76.685 66.9775C75.658 66.6037 74.9117 66.4175 74.1654 67.5376C73.4191 68.6577 71.272 71.1809 70.6188 71.9273C69.9656 72.6736 69.3124 72.7679 68.1923 72.2079C64.8902 70.8926 61.8426 69.012 59.1862 66.6503C56.7376 64.387 54.6379 61.7732 52.9558 58.8942C52.3026 57.7728 52.886 57.1675 53.446 56.6086C53.9497 56.1074 54.5661 55.301 55.1262 54.6478C55.5869 54.082 55.9641 53.4531 56.2463 52.7802C56.395 52.4714 56.4643 52.1304 56.4481 51.788C56.4318 51.4456 56.3304 51.1127 56.1531 50.8194C55.8737 50.2594 53.6335 44.7483 52.6997 42.5069C51.7904 40.3231 50.8615 40.6184 50.1801 40.5853C49.4648 40.5549 48.7489 40.5418 48.033 40.5461C47.4655 40.561 46.9072 40.6931 46.3933 40.9342C45.8793 41.1752 45.4208 41.52 45.0465 41.9469C43.7799 43.146 42.7771 44.596 42.1019 46.2042C41.4267 47.8124 41.094 49.5436 41.1249 51.2876C41.1249 56.8023 45.1384 62.1221 45.6985 62.8697C46.2585 63.6172 53.5955 74.926 64.8308 79.7814C66.916 80.6797 69.0473 81.4672 71.2156 82.1405C73.5005 82.8346 75.9157 82.9865 78.2695 82.5841C80.4215 82.263 84.8958 79.8758 85.8296 77.2606C86.5622 75.5878 86.7892 73.7373 86.4828 71.9371C86.2021 71.4702 85.4558 71.1895 84.3357 70.6295L84.3382 70.6209Z" fill="white"/>
</g>
<defs>
<linearGradient id="paint0_linear_400_2" x1="62.5006" y1="-0.00488281" x2="62.5006" y2="125" gradientUnits="userSpaceOnUse">
<stop stop-color="#61FD7D"/>
<stop offset="1" stop-color="#2BB826"/>
</linearGradient>
<clipPath id="clip0_400_2">
<rect width="125" height="125" fill="white"/>
</clipPath>
</defs>
</svg>
