<svg xmlns="http://www.w3.org/2000/svg" xmlns:xlink="http://www.w3.org/1999/xlink" width="40" zoomAndPan="magnify" viewBox="0 0 30 30.000001" height="40" preserveAspectRatio="xMidYMid meet" version="1.0"><defs><clipPath id="ac3e26e081"><path d="M 0.484375 6 L 11 6 L 11 24 L 0.484375 24 Z M 0.484375 6 " clip-rule="nonzero"/></clipPath><clipPath id="0827833cd4"><path d="M 28.4375 11.898438 L 14.953125 11.898438 L 14.953125 17.460938 L 22.714844 17.460938 C 21.992188 21 18.964844 23.027344 14.953125 23.027344 C 10.21875 23.027344 6.402344 19.230469 6.402344 14.515625 C 6.402344 9.800781 10.21875 6.003906 14.953125 6.003906 C 16.992188 6.003906 18.835938 6.722656 20.28125 7.902344 L 24.492188 3.710938 C 21.925781 1.484375 18.636719 0.109375 14.953125 0.109375 C 6.929688 0.109375 0.484375 6.527344 0.484375 14.515625 C 0.484375 22.503906 6.929688 28.921875 14.953125 28.921875 C 22.1875 28.921875 28.765625 23.683594 28.765625 14.515625 C 28.765625 13.664062 28.632812 12.746094 28.4375 11.898438 Z M 28.4375 11.898438 " clip-rule="nonzero"/></clipPath><clipPath id="c3631286d0"><path d="M 0.484375 0 L 28.765625 0 L 28.765625 15 L 0.484375 15 Z M 0.484375 0 " clip-rule="nonzero"/></clipPath><clipPath id="e1d1559423"><path d="M 28.4375 11.898438 L 14.953125 11.898438 L 14.953125 17.460938 L 22.714844 17.460938 C 21.992188 21 18.964844 23.027344 14.953125 23.027344 C 10.21875 23.027344 6.402344 19.230469 6.402344 14.515625 C 6.402344 9.800781 10.21875 6.003906 14.953125 6.003906 C 16.992188 6.003906 18.835938 6.722656 20.28125 7.902344 L 24.492188 3.710938 C 21.925781 1.484375 18.636719 0.109375 14.953125 0.109375 C 6.929688 0.109375 0.484375 6.527344 0.484375 14.515625 C 0.484375 22.503906 6.929688 28.921875 14.953125 28.921875 C 22.1875 28.921875 28.765625 23.683594 28.765625 14.515625 C 28.765625 13.664062 28.632812 12.746094 28.4375 11.898438 Z M 28.4375 11.898438 " clip-rule="nonzero"/></clipPath><clipPath id="9723c2a234"><path d="M 0.484375 0 L 28.765625 0 L 28.765625 28.921875 L 0.484375 28.921875 Z M 0.484375 0 " clip-rule="nonzero"/></clipPath><clipPath id="ab603e051a"><path d="M 28.4375 11.898438 L 14.953125 11.898438 L 14.953125 17.460938 L 22.714844 17.460938 C 21.992188 21 18.964844 23.027344 14.953125 23.027344 C 10.21875 23.027344 6.402344 19.230469 6.402344 14.515625 C 6.402344 9.800781 10.21875 6.003906 14.953125 6.003906 C 16.992188 6.003906 18.835938 6.722656 20.28125 7.902344 L 24.492188 3.710938 C 21.925781 1.484375 18.636719 0.109375 14.953125 0.109375 C 6.929688 0.109375 0.484375 6.527344 0.484375 14.515625 C 0.484375 22.503906 6.929688 28.921875 14.953125 28.921875 C 22.1875 28.921875 28.765625 23.683594 28.765625 14.515625 C 28.765625 13.664062 28.632812 12.746094 28.4375 11.898438 Z M 28.4375 11.898438 " clip-rule="nonzero"/></clipPath><clipPath id="2a8398ff58"><path d="M 7 6 L 28.765625 6 L 28.765625 28.921875 L 7 28.921875 Z M 7 6 " clip-rule="nonzero"/></clipPath><clipPath id="413983fc6f"><path d="M 28.4375 11.898438 L 14.953125 11.898438 L 14.953125 17.460938 L 22.714844 17.460938 C 21.992188 21 18.964844 23.027344 14.953125 23.027344 C 10.21875 23.027344 6.402344 19.230469 6.402344 14.515625 C 6.402344 9.800781 10.21875 6.003906 14.953125 6.003906 C 16.992188 6.003906 18.835938 6.722656 20.28125 7.902344 L 24.492188 3.710938 C 21.925781 1.484375 18.636719 0.109375 14.953125 0.109375 C 6.929688 0.109375 0.484375 6.527344 0.484375 14.515625 C 0.484375 22.503906 6.929688 28.921875 14.953125 28.921875 C 22.1875 28.921875 28.765625 23.683594 28.765625 14.515625 C 28.765625 13.664062 28.632812 12.746094 28.4375 11.898438 Z M 28.4375 11.898438 " clip-rule="nonzero"/></clipPath></defs><g clip-path="url(#ac3e26e081)"><g clip-path="url(#0827833cd4)"><path fill="#fbbc05" d="M -0.832031 23.027344 L -0.832031 6.003906 L 10.347656 14.515625 Z M -0.832031 23.027344 " fill-opacity="1" fill-rule="nonzero"/></g></g><g clip-path="url(#c3631286d0)"><g clip-path="url(#e1d1559423)"><path fill="#ea4335" d="M -0.832031 6.003906 L 10.347656 14.515625 L 14.953125 10.523438 L 30.738281 7.96875 L 30.738281 -1.199219 L -0.832031 -1.199219 Z M -0.832031 6.003906 " fill-opacity="1" fill-rule="nonzero"/></g></g><g clip-path="url(#9723c2a234)"><g clip-path="url(#ab603e051a)"><path fill="#34a853" d="M -0.832031 23.027344 L 18.898438 7.96875 L 24.097656 8.621094 L 30.738281 -1.199219 L 30.738281 30.230469 L -0.832031 30.230469 Z M -0.832031 23.027344 " fill-opacity="1" fill-rule="nonzero"/></g></g><g clip-path="url(#2a8398ff58)"><g clip-path="url(#413983fc6f)"><path fill="#4285f4" d="M 30.738281 30.230469 L 10.347656 14.515625 L 7.71875 12.550781 L 30.738281 6.003906 Z M 30.738281 30.230469 " fill-opacity="1" fill-rule="nonzero"/></g></g></svg>