<svg id="Capa_1" data-name="Capa 1" xmlns="http://www.w3.org/2000/svg" viewBox="0 0 340 220"><defs><style>.cls-1{fill:#fff;}.cls-2{fill:#14aaf5;}</style></defs><path class="cls-1" d="M193.08,102.75l-.23-35.91L175.74,95.66H164L146.92,68.08v34.67h-24.2V24h21.84l25.67,42,25-42h21.84l.23,78.8Z"/><polygon class="cls-2" points="122.83 102.75 172.06 102.75 217.17 23.95 195.33 23.95 170.34 65.94 147.04 102.75 122.83 68.02 122.83 102.75"/><path class="cls-1" d="M38.08,155.09l0-14-6.89,11.56H28.72l-6.85-11.26v13.74H16.79v-23.4h4.48L30,146.23l8.62-14.54H43.1l.06,23.4Z"/><path class="cls-1" d="M64.46,150.07H53.59l-2.07,5H46l10.43-23.4h5.35l10.46,23.4H66.53ZM62.75,146,59,137l-3.71,9Z"/><path class="cls-1" d="M96.45,131.69v23.4H92L80.34,140.88v14.21H75v-23.4h4.48l11.63,14.2v-14.2Z"/><path class="cls-1" d="M107.18,136.1H99.69v-4.41h20.4v4.41H112.6v19h-5.42Z"/><path class="cls-1" d="M141.45,150.74v4.35H123.33v-23.4H141V136H128.71v5.08h10.87v4.22H128.71v5.41Z"/><path class="cls-1" d="M167.56,131.69v23.4h-4.45l-11.66-14.21v14.21H146.1v-23.4h4.48l11.63,14.2v-14.2Z"/><path class="cls-1" d="M173.44,131.69h5.42v23.4h-5.42Z"/><path class="cls-1" d="M206,155.09l0-14-6.88,11.56h-2.44l-6.86-11.26v13.74h-5.08v-23.4h4.48L198,146.23l8.63-14.54h4.44l.07,23.4Z"/><path class="cls-1" d="M217,131.69h5.42v23.4H217Z"/><path class="cls-1" d="M246.42,150.74v4.35H228.3v-23.4H246V136h-12.3v5.08h10.86v4.22H233.69v5.41Z"/><path class="cls-1" d="M272.53,131.69v23.4h-4.44l-11.67-14.21v14.21h-5.35v-23.4h4.48l11.63,14.2v-14.2Z"/><path class="cls-1" d="M283.26,136.1h-7.49v-4.41h20.4v4.41h-7.49v19h-5.42Z"/><path class="cls-1" d="M303.84,153.92a11.65,11.65,0,0,1-4.58-4.33,12.47,12.47,0,0,1,0-12.4,11.58,11.58,0,0,1,4.58-4.33,14.49,14.49,0,0,1,13.12,0,11.94,11.94,0,0,1,0,21.06,14.49,14.49,0,0,1-13.12,0Zm10.31-4a6.84,6.84,0,0,0,2.63-2.65,8.4,8.4,0,0,0,0-7.76,6.86,6.86,0,0,0-2.63-2.66,7.84,7.84,0,0,0-7.48,0,6.86,6.86,0,0,0-2.63,2.66,8.4,8.4,0,0,0,0,7.76,6.84,6.84,0,0,0,2.63,2.65,7.77,7.77,0,0,0,7.48,0Z"/><path class="cls-2" d="M80.12,189.3v6.19H59.89V171.16H79.67v6.18H68v2.86H78.25v5.91H68v3.19Z"/><path class="cls-2" d="M109,171.16v24.33h-6.75L93,184.44v11.05H85V171.16h6.74L101,182.21V171.16Z"/><path class="cls-2" d="M143.47,191.25h-9.25l-1.63,4.24h-8.35l10.64-24.33H143l10.64,24.33h-8.48Zm-2.26-5.91-2.36-6.12-2.37,6.12Z"/><path class="cls-2" d="M161.93,194.43a12,12,0,0,1-4.85-4.52,13.26,13.26,0,0,1,0-13.17,12,12,0,0,1,4.85-4.52,14.79,14.79,0,0,1,7-1.62,15.38,15.38,0,0,1,6.33,1.25,11.84,11.84,0,0,1,4.59,3.62l-5.19,4.62a6.64,6.64,0,0,0-5.32-2.85,5.42,5.42,0,0,0-4.13,1.65,7,7,0,0,0,0,8.87,5.42,5.42,0,0,0,4.13,1.65,6.64,6.64,0,0,0,5.32-2.85l5.19,4.62a11.84,11.84,0,0,1-4.59,3.62,15.38,15.38,0,0,1-6.33,1.25A14.79,14.79,0,0,1,161.93,194.43Z"/><path class="cls-2" d="M189,194.43a12,12,0,0,1-4.85-4.52,13.2,13.2,0,0,1,0-13.17,12,12,0,0,1,4.85-4.52A14.75,14.75,0,0,1,196,170.6a15.35,15.35,0,0,1,6.33,1.25,11.84,11.84,0,0,1,4.59,3.62l-5.18,4.62a6.65,6.65,0,0,0-5.32-2.85,5.43,5.43,0,0,0-4.14,1.65,7.08,7.08,0,0,0,0,8.87,5.43,5.43,0,0,0,4.14,1.65,6.65,6.65,0,0,0,5.32-2.85l5.18,4.62a11.84,11.84,0,0,1-4.59,3.62,15.35,15.35,0,0,1-6.33,1.25A14.75,14.75,0,0,1,189,194.43Z"/><path class="cls-2" d="M211,171.16h8.21v24.33H211Z"/><path class="cls-2" d="M230.6,194.42a12.49,12.49,0,0,1,0-22.19,16.1,16.1,0,0,1,14.12,0,12.49,12.49,0,0,1,0,22.19,16.1,16.1,0,0,1-14.12,0Zm9.82-5.76a5.32,5.32,0,0,0,2-2.12,7.44,7.44,0,0,0,0-6.43,5.32,5.32,0,0,0-2-2.12,5.2,5.2,0,0,0-2.76-.75,5.26,5.26,0,0,0-2.77.75,5.36,5.36,0,0,0-2,2.12,7.44,7.44,0,0,0,0,6.43,5.36,5.36,0,0,0,2,2.12,5.26,5.26,0,0,0,2.77.75A5.2,5.2,0,0,0,240.42,188.66Zm-1.82-25h7.47l-6.85,5.56H234Z"/><path class="cls-2" d="M280.11,171.16v24.33h-6.74l-9.25-11.05v11.05h-8V171.16h6.75l9.24,11.05V171.16Z"/></svg>